<?xml version="1.0" standalone="no"?>
<!DOCTYPE svg PUBLIC "-//W3C//DTD SVG 20010904//EN"
 "http://www.w3.org/TR/2001/REC-SVG-20010904/DTD/svg10.dtd">
<svg version="1.0" xmlns="http://www.w3.org/2000/svg"
 width="320.000000pt" height="319.000000pt" viewBox="0 0 320.000000 319.000000"
 preserveAspectRatio="xMidYMid meet">

<g transform="translate(0.000000,319.000000) scale(0.100000,-0.100000)"
fill="#000000" stroke="none">
<path d="M1390 2045 c-18 -22 -19 -106 -1 -127 18 -23 3 -23 -28 -2 -22 16
-24 16 -41 -6 -14 -19 -20 -21 -38 -11 -22 11 -25 11 -177 -23 -82 -19 -88
-19 -138 -5 -31 8 -36 13 -27 24 9 11 3 25 -30 64 -24 28 -54 58 -68 67 -23
15 -27 15 -62 -5 -21 -11 -96 -34 -166 -51 -175 -40 -174 -40 -174 -61 0 -10
-9 -33 -20 -51 -27 -45 -26 -54 15 -89 19 -17 37 -38 40 -48 3 -9 30 -28 59
-40 61 -25 139 -89 161 -132 23 -44 19 -86 -10 -105 -14 -9 -28 -15 -30 -12
-3 2 0 32 6 66 13 70 9 85 -23 105 -43 28 -66 30 -73 7 -7 -23 -46 -43 -112
-60 -42 -10 -43 -12 -43 -50 0 -30 4 -40 16 -40 10 0 14 -6 11 -14 -3 -8 -11
-34 -17 -58 -15 -57 -33 -83 -80 -117 l-40 -28 33 -6 c62 -10 85 -25 98 -61 7
-20 18 -36 24 -36 5 0 37 13 70 28 167 79 256 91 323 43 l40 -30 38 85 c20 46
38 84 38 84 1 0 16 -4 34 -9 31 -9 32 -9 26 15 -6 24 -5 25 42 23 27 -1 58 3
70 11 17 10 26 10 53 -4 32 -17 33 -17 74 11 56 39 125 40 164 1 l27 -27 34
31 c31 26 40 29 75 24 54 -9 62 -16 38 -33 -14 -9 -21 -25 -21 -45 0 -30 1
-30 37 -23 21 4 49 15 64 26 32 22 43 24 36 5 -3 -7 13 -31 37 -55 l42 -41 57
12 c49 10 65 10 101 -3 56 -20 77 -12 113 48 24 38 39 51 71 60 41 13 72 9 72
-9 0 -5 11 -24 24 -41 13 -18 36 -56 50 -84 28 -57 36 -62 57 -36 20 23 72 43
117 43 59 0 130 -25 210 -75 41 -25 76 -45 78 -45 2 0 4 9 4 21 0 33 55 77
104 84 l44 7 -40 40 c-130 130 -174 496 -64 524 29 7 32 24 15 73 -9 24 -17
31 -37 31 -42 0 -212 48 -256 73 l-41 22 -103 -41 c-57 -23 -106 -44 -109 -47
-3 -3 14 -17 36 -31 55 -35 52 -47 -6 -29 -106 33 -125 37 -145 24 -13 -8 -24
-8 -37 -1 -11 5 -39 7 -63 4 -27 -3 -59 0 -87 10 -62 23 -73 21 -125 -25 -26
-23 -48 -40 -50 -38 -1 2 -17 25 -34 50 -44 65 -58 75 -66 47 -12 -48 -21 -53
-54 -29 -32 22 -67 28 -77 11 -3 -5 -11 -10 -18 -10 -8 0 -8 3 1 12 7 7 12 37
12 68 0 31 -5 61 -12 68 -18 18 -133 16 -148 -3z m136 -12 c31 -42 8 -131 -35
-134 -9 -1 0 -5 19 -8 23 -5 40 -3 51 6 23 19 34 16 67 -17 l30 -30 22 35 22
35 17 -22 c10 -13 28 -40 40 -61 l23 -37 56 48 57 49 45 -14 c25 -8 70 -14
100 -15 30 0 62 -4 72 -9 12 -6 24 -5 37 2 15 10 35 8 103 -10 80 -22 86 -25
117 -71 25 -37 31 -52 23 -67 -5 -10 -12 -42 -16 -70 -6 -51 -6 -53 17 -53 17
0 33 -12 51 -39 15 -22 34 -42 42 -45 23 -9 16 -28 -22 -67 l-36 -37 37 -12
c32 -10 39 -10 57 7 28 25 38 55 49 153 11 96 4 186 -17 214 -14 20 -15 20
-62 0 l-47 -20 -39 26 c-21 15 -42 34 -48 43 -11 21 -1 40 15 30 7 -3 4 3 -6
14 -10 12 -32 27 -48 33 -16 7 -29 16 -29 19 0 4 24 15 53 24 28 10 70 25 91
35 l39 18 85 -34 c47 -19 115 -40 151 -46 36 -6 72 -15 79 -19 22 -15 13 -51
-20 -72 -41 -26 -56 -72 -57 -170 -1 -136 62 -326 124 -373 22 -16 21 -17 -24
-32 -35 -11 -50 -23 -61 -47 -8 -18 -18 -33 -22 -33 -4 0 -33 15 -65 34 -121
71 -247 86 -313 38 l-30 -22 -42 82 c-24 46 -44 89 -46 96 -4 15 -75 16 -102
2 -13 -7 -21 -7 -25 0 -3 5 -11 10 -16 10 -6 0 -8 -4 -4 -9 3 -6 -11 -35 -31
-66 -33 -52 -38 -56 -62 -50 -51 13 -132 17 -161 7 -26 -9 -32 -7 -65 27 -20
20 -36 41 -36 46 0 5 10 20 23 33 l22 24 -25 -7 c-14 -4 -44 -21 -67 -36 -66
-46 -118 -34 -69 16 l25 25 -22 14 c-38 23 -95 20 -131 -7 l-32 -25 -27 24
c-40 34 -111 33 -162 -2 -32 -21 -42 -24 -62 -15 -28 13 -66 14 -77 4 -4 -5
-31 -8 -59 -8 -47 0 -52 -2 -55 -23 -2 -13 -9 -21 -15 -19 -7 3 -20 8 -29 12
-11 4 -18 3 -18 -4 0 -6 -14 -42 -31 -80 l-31 -69 -49 30 c-68 43 -121 37
-261 -31 -114 -55 -128 -59 -128 -37 0 24 -40 64 -70 71 l-30 7 34 39 c28 33
76 146 76 179 0 6 -9 10 -20 10 -14 0 -20 7 -20 23 0 20 9 26 61 41 35 9 70
27 83 41 28 30 47 32 71 5 22 -24 18 -108 -8 -159 -9 -19 -16 -35 -15 -37 7
-6 85 38 101 57 23 28 22 53 -5 107 -25 50 -123 127 -183 143 -19 6 -35 14
-35 19 0 6 -16 27 -35 49 -40 43 -41 48 -21 88 8 15 17 35 20 44 4 15 50 29
236 70 25 6 62 19 83 30 22 11 47 17 57 14 16 -5 100 -97 100 -109 0 -3 -18
-17 -40 -31 -22 -14 -40 -30 -40 -35 0 -15 61 -8 67 7 4 9 21 11 61 7 32 -3
82 -1 112 5 30 7 62 13 70 15 84 16 100 16 121 6 19 -11 24 -9 40 11 16 22 19
22 36 7 14 -12 27 -14 58 -8 22 4 34 8 26 9 -8 0 -23 8 -33 18 -21 19 -25 96
-5 118 18 21 106 20 123 -2z m1030 -310 c4 -20 4 -88 1 -150 -5 -93 -10 -119
-27 -143 -21 -29 -53 -39 -65 -21 -3 5 3 16 13 23 10 7 24 23 31 36 11 21 8
28 -35 75 -25 29 -55 55 -65 59 -22 9 -24 45 -6 98 10 28 17 34 34 32 12 -2
35 4 50 12 46 25 61 20 69 -21z"/>
<path d="M1450 2011 c5 -11 10 -22 10 -25 0 -12 -24 -6 -42 11 -17 15 -18 14
-18 -22 0 -36 1 -37 18 -22 19 17 42 23 42 10 0 -3 -7 -15 -17 -25 -15 -17
-14 -18 23 -18 31 1 36 3 22 11 -19 10 -25 39 -9 39 5 0 17 -7 25 -16 15 -14
16 -12 16 22 0 37 0 37 -20 19 -24 -22 -39 -12 -22 15 11 18 9 20 -13 20 -22
0 -24 -3 -15 -19z"/>
<path d="M775 1980 c-27 -18 -55 -26 -223 -61 -59 -12 -64 -16 -87 -57 l-25
-45 37 -41 c20 -22 58 -53 83 -67 88 -48 138 -90 164 -139 30 -55 33 -96 10
-129 -17 -24 -142 -87 -152 -77 -3 4 4 27 16 54 28 61 38 137 22 157 -11 13
-16 12 -42 -10 -16 -13 -47 -30 -68 -36 -29 -9 -37 -15 -30 -24 13 -15 -31
-168 -59 -206 l-20 -27 40 -42 41 -43 100 49 c124 59 194 69 258 35 l41 -21
18 42 c10 24 24 60 31 80 11 28 17 35 29 29 9 -6 23 -3 38 6 16 11 38 14 68
10 41 -4 48 -2 71 26 16 19 23 36 18 46 -4 9 -12 31 -18 48 -7 18 -16 36 -21
40 -4 5 -6 1 -3 -8 10 -25 -18 -78 -45 -84 -13 -4 -41 0 -61 9 -28 12 -36 21
-36 40 0 24 16 43 114 136 20 19 40 46 43 59 6 26 -17 108 -29 104 -5 -2 -43
-3 -85 -3 l-78 0 -28 -51 c-22 -39 -25 -54 -17 -65 13 -15 27 -134 15 -134 -4
0 -28 19 -54 43 -26 23 -92 70 -147 105 -141 89 -139 87 -127 115 8 17 27 28
70 40 110 31 172 15 128 -33 -27 -30 -12 -50 37 -49 24 0 37 3 31 6 -33 13 1
78 50 96 11 4 -70 98 -83 96 -3 0 -18 -9 -35 -19z m285 -209 c5 -11 10 -36 10
-57 0 -30 -7 -44 -40 -76 -23 -21 -45 -38 -49 -38 -23 0 -17 122 9 170 14 26
56 26 70 1z"/>
<path d="M1005 1750 c-3 -10 -10 -42 -14 -69 -7 -47 -7 -49 10 -40 29 15 51
66 44 100 -7 33 -31 39 -40 9z m16 -73 c-18 -18 -21 -3 -9 39 l12 39 4 -34 c2
-18 -1 -38 -7 -44z"/>
<path d="M2400 1932 l-55 -27 38 -34 c29 -26 38 -41 34 -58 -5 -28 19 -45 51
-36 30 7 28 23 -8 57 -45 42 -36 61 25 60 57 -1 122 -17 150 -38 18 -13 17
-14 -13 -30 -17 -9 -40 -16 -52 -16 -21 0 -21 0 1 -30 46 -62 34 -310 -17
-378 -33 -42 -43 -46 -93 -32 -57 15 -61 34 -18 78 l36 37 -46 45 c-31 30 -41
37 -33 21 11 -22 10 -27 -10 -43 -12 -10 -27 -18 -32 -18 -14 0 -5 199 9 225
9 15 6 26 -14 56 -20 31 -35 40 -96 58 -40 11 -76 21 -82 21 -5 -1 -25 -14
-43 -29 l-33 -28 25 -38 c14 -21 23 -41 20 -46 -8 -13 26 -10 61 5 l30 13 -25
13 c-45 23 -53 53 -19 70 43 23 109 -17 109 -65 0 -15 -8 -40 -17 -58 -13 -24
-16 -52 -14 -114 2 -80 2 -83 -22 -94 -58 -26 -115 21 -103 85 5 25 22 49 61
85 30 27 55 52 55 55 0 2 -28 -6 -62 -20 -34 -13 -67 -24 -74 -24 -7 0 -23
-14 -35 -31 -19 -26 -22 -43 -20 -103 1 -40 8 -80 16 -92 12 -19 21 -21 82
-17 37 2 73 0 78 -4 6 -4 24 -41 40 -81 16 -40 32 -75 37 -78 4 -3 18 2 30 10
63 40 173 27 292 -34 74 -38 79 -39 92 -23 7 10 14 21 14 24 0 4 14 12 30 19
l31 13 -20 21 c-34 36 -72 132 -93 234 -33 162 -12 284 54 318 39 20 27 32
-43 44 -59 10 -148 39 -197 64 -40 21 -46 20 -112 -12z"/>
<path d="M653 1863 c-29 -9 -53 -21 -53 -28 0 -7 44 -41 98 -75 53 -35 116
-78 139 -97 23 -18 44 -33 48 -33 12 0 -7 65 -23 78 -15 11 -15 15 1 42 l18
30 -59 0 c-44 0 -63 5 -75 18 -22 24 -21 31 5 59 l21 23 -34 -1 c-19 0 -58 -8
-86 -16z m67 -27 c0 -40 31 -67 83 -73 41 -5 45 -8 37 -24 -14 -25 -12 -39 5
-39 8 0 15 -2 15 -4 0 -2 3 -12 6 -21 4 -8 -50 22 -119 67 -70 46 -126 86
-127 89 0 8 51 27 78 28 17 1 22 -4 22 -23z"/>
<path d="M1306 1834 c-39 -46 -70 -52 -40 -7 13 21 14 27 3 34 -8 4 -25 5 -39
1 -14 -3 -37 -7 -52 -7 -33 0 -34 -6 -10 -42 24 -38 31 -268 9 -331 l-15 -43
31 -13 c28 -11 35 -10 66 11 18 13 49 23 67 23 33 0 33 1 21 27 -9 20 -13 23
-15 10 -2 -10 -13 -17 -26 -17 -37 0 -56 55 -56 163 0 98 14 137 49 137 26 0
48 -45 31 -65 -7 -8 -9 -23 -5 -32 5 -15 10 -11 25 19 10 20 27 48 38 62 24
32 19 64 -17 93 l-28 22 -37 -45z"/>
<path d="M1438 1867 c-22 -10 -25 -15 -16 -31 16 -29 1 -305 -19 -335 -14 -22
-13 -24 18 -50 l33 -28 35 24 c19 13 42 21 50 18 9 -3 1 7 -16 24 l-33 30 0
159 c0 132 3 162 15 172 13 11 13 15 3 21 -17 11 -37 10 -70 -4z"/>
<path d="M1554 1852 c-20 -25 -20 -29 -6 -50 12 -19 13 -41 3 -159 -12 -151
-10 -157 51 -189 37 -19 39 -18 28 12 -6 14 -10 84 -10 156 0 105 3 135 17
159 39 66 72 3 80 -151 6 -116 -12 -188 -60 -239 l-32 -34 48 32 c26 18 60 37
76 42 42 15 64 71 43 111 -11 22 -13 53 -10 116 5 90 5 92 -45 174 l-29 47
-25 -29 c-14 -17 -34 -35 -45 -41 -18 -10 -19 -8 -13 19 5 24 2 33 -14 41 -28
15 -33 14 -57 -17z"/>
<path d="M2450 1871 c0 -5 14 -19 30 -31 29 -20 34 -21 83 -9 l52 12 -60 19
c-66 20 -105 23 -105 9z m94 -20 c11 -16 -27 -22 -43 -6 -14 13 -13 15 11 15
15 0 29 -4 32 -9z"/>
<path d="M1850 1831 l-45 -38 0 -109 c0 -101 2 -113 27 -155 33 -55 50 -64 88
-44 43 22 48 19 56 -31 6 -41 4 -49 -18 -71 -32 -31 -108 -45 -108 -19 0 10 4
25 9 35 8 13 2 23 -25 45 -20 16 -35 22 -33 14 4 -33 -3 -55 -25 -79 l-25 -27
28 -26 c27 -26 30 -26 75 -15 34 8 57 9 90 0 66 -16 70 -15 95 30 21 37 22 45
12 81 -14 45 -16 160 -6 271 5 57 14 87 31 113 13 19 24 37 24 40 0 3 -24 3
-52 -1 -38 -5 -64 -2 -90 9 -52 22 -57 21 -108 -23z m125 -27 c10 -10 13 -23
9 -33 -5 -9 -10 -66 -12 -128 -3 -89 -7 -113 -19 -117 -41 -16 -73 58 -73 168
0 69 3 86 20 104 25 26 52 28 75 6z"/>
<path d="M1920 1790 c-22 -14 -27 -155 -6 -203 8 -20 19 -37 23 -37 4 0 8 37
9 83 0 45 6 99 11 119 9 30 8 38 -4 42 -18 7 -15 8 -33 -4z m24 -32 c-4 -13
-11 -54 -14 -93 l-7 -70 -2 86 c0 47 2 89 6 92 14 15 24 6 17 -15z"/>
<path d="M878 1803 c7 -3 16 -2 19 1 4 3 -2 6 -13 5 -11 0 -14 -3 -6 -6z"/>
<path d="M1148 1768 c4 -41 0 -52 -26 -89 -17 -23 -47 -52 -66 -65 -47 -32
-71 -77 -51 -94 7 -6 29 -10 47 -8 32 3 33 4 33 52 0 29 5 51 12 53 17 6 53
-33 53 -56 0 -11 5 -23 10 -26 16 -10 12 214 -4 250 -13 29 -13 29 -8 -17z m0
-138 c-3 -18 -5 -19 -21 -8 -17 12 -17 14 0 38 15 21 18 22 21 8 2 -10 2 -27
0 -38z m-74 -54 c11 -46 -8 -65 -48 -50 -21 8 -20 16 5 48 25 32 35 33 43 2z"/>
<path d="M1510 1663 c0 -75 2 -134 5 -132 8 9 26 231 20 250 -16 50 -25 8 -25
-118z"/>
<path d="M2200 1781 c0 -19 33 -32 58 -23 19 6 14 18 -13 30 -36 16 -45 15
-45 -7z"/>
<path d="M1654 1765 c-13 -29 -11 -296 2 -319 35 -59 56 230 22 304 -14 32
-16 33 -24 15z m28 -155 c1 -47 -3 -96 -7 -110 -8 -24 -8 -24 -16 -5 -10 25
-11 171 -2 216 6 32 6 32 15 9 5 -14 9 -63 10 -110z"/>
<path d="M2077 1763 c-3 -5 -9 -38 -13 -73 l-7 -65 22 28 c13 15 29 27 36 27
11 0 12 7 4 32 -10 36 -34 65 -42 51z m31 -55 c2 -9 -4 -18 -13 -21 -11 -5
-15 0 -15 19 0 28 23 29 28 2z"/>
<path d="M1287 1753 c-4 -3 -7 -57 -7 -118 0 -88 3 -115 15 -125 13 -11 15 -8
15 19 0 47 34 43 46 -6 l9 -38 18 26 c15 22 17 45 15 130 l-3 104 -17 -32
c-10 -17 -16 -38 -13 -45 3 -7 1 -20 -5 -28 -7 -12 -13 -11 -34 10 -27 24 -34
58 -16 76 8 8 7 14 -3 22 -8 7 -17 9 -20 5z m86 -131 c16 23 16 23 15 -12 0
-19 -4 -46 -8 -60 -8 -24 -8 -24 -9 -2 -1 19 -6 22 -41 22 l-40 0 0 47 0 47
33 -33 34 -32 16 23z"/>
<path d="M2203 1618 c-43 -45 -51 -80 -24 -107 51 -51 79 5 60 117 -2 12 -4
22 -4 22 -1 0 -15 -15 -32 -32z m27 -54 c0 -52 -1 -55 -22 -52 -31 4 -35 46
-8 81 12 15 23 27 26 27 2 0 4 -25 4 -56z"/>
<path d="M2371 1534 c0 -11 3 -14 6 -6 3 7 2 16 -1 19 -3 4 -6 -2 -5 -13z"/>
<path d="M1820 1493 c0 -6 8 -17 18 -24 16 -13 16 -13 2 6 -8 11 -16 22 -17
24 -2 2 -3 0 -3 -6z"/>
<path d="M1926 1458 c-10 -5 -29 -8 -42 -5 l-25 4 20 -21 c20 -21 20 -23 4
-39 -16 -16 -15 -17 13 -17 46 0 78 43 56 77 -5 8 -13 8 -26 1z m14 -27 c0
-10 -7 -24 -15 -31 -13 -10 -15 -9 -15 12 0 14 3 28 7 31 12 13 23 7 23 -12z"/>
</g>
</svg>
